<svg xmlns="http://www.w3.org/2000/svg" width="128" height="128" viewBox="0 0 128 128">
  <!-- 4x4 스프라이트 시트: 각 프레임 32x32 -->
  <!-- Row 0: Idle (대기) -->
  <g transform="translate(0,0)">
    <circle cx="16" cy="10" r="6" fill="#ffcc99"/>
    <rect x="10" y="16" width="12" height="14" fill="#4a90d9"/>
    <rect x="10" y="4" width="12" height="4" fill="#4a3020"/>
  </g>
  <g transform="translate(32,0)">
    <circle cx="16" cy="11" r="6" fill="#ffcc99"/>
    <rect x="10" y="17" width="12" height="13" fill="#4a90d9"/>
    <rect x="10" y="5" width="12" height="4" fill="#4a3020"/>
  </g>
  <g transform="translate(64,0)">
    <circle cx="16" cy="10" r="6" fill="#ffcc99"/>
    <rect x="10" y="16" width="12" height="14" fill="#4a90d9"/>
    <rect x="10" y="4" width="12" height="4" fill="#4a3020"/>
  </g>
  <g transform="translate(96,0)">
    <circle cx="16" cy="11" r="6" fill="#ffcc99"/>
    <rect x="10" y="17" width="12" height="13" fill="#4a90d9"/>
    <rect x="10" y="5" width="12" height="4" fill="#4a3020"/>
  </g>

  <!-- Row 1: Sitting (앉기) -->
  <g transform="translate(0,32)">
    <circle cx="16" cy="8" r="6" fill="#ffcc99"/>
    <rect x="10" y="14" width="12" height="10" fill="#4a90d9"/>
    <rect x="8" y="24" width="16" height="6" fill="#4a90d9"/>
    <rect x="10" y="2" width="12" height="4" fill="#4a3020"/>
  </g>
  <g transform="translate(32,32)">
    <circle cx="16" cy="9" r="6" fill="#ffcc99"/>
    <rect x="10" y="15" width="12" height="9" fill="#4a90d9"/>
    <rect x="8" y="24" width="16" height="6" fill="#4a90d9"/>
    <rect x="10" y="3" width="12" height="4" fill="#4a3020"/>
  </g>
  <g transform="translate(64,32)">
    <circle cx="16" cy="8" r="6" fill="#ffcc99"/>
    <rect x="10" y="14" width="12" height="10" fill="#4a90d9"/>
    <rect x="8" y="24" width="16" height="6" fill="#4a90d9"/>
    <rect x="10" y="2" width="12" height="4" fill="#4a3020"/>
  </g>
  <g transform="translate(96,32)">
    <circle cx="16" cy="9" r="6" fill="#ffcc99"/>
    <rect x="10" y="15" width="12" height="9" fill="#4a90d9"/>
    <rect x="8" y="24" width="16" height="6" fill="#4a90d9"/>
    <rect x="10" y="3" width="12" height="4" fill="#4a3020"/>
  </g>

  <!-- Row 2: Happy (기쁨) -->
  <g transform="translate(0,64)">
    <circle cx="16" cy="8" r="6" fill="#ffcc99"/>
    <rect x="10" y="14" width="12" height="14" fill="#4a90d9"/>
    <rect x="10" y="2" width="12" height="4" fill="#4a3020"/>
    <rect x="4" y="10" width="6" height="3" fill="#ffcc99"/>
    <rect x="22" y="10" width="6" height="3" fill="#ffcc99"/>
  </g>
  <g transform="translate(32,64)">
    <circle cx="16" cy="6" r="6" fill="#ffcc99"/>
    <rect x="10" y="12" width="12" height="14" fill="#4a90d9"/>
    <rect x="10" y="0" width="12" height="4" fill="#4a3020"/>
    <rect x="2" y="6" width="6" height="3" fill="#ffcc99"/>
    <rect x="24" y="6" width="6" height="3" fill="#ffcc99"/>
  </g>
  <g transform="translate(64,64)">
    <circle cx="16" cy="8" r="6" fill="#ffcc99"/>
    <rect x="10" y="14" width="12" height="14" fill="#4a90d9"/>
    <rect x="10" y="2" width="12" height="4" fill="#4a3020"/>
    <rect x="4" y="10" width="6" height="3" fill="#ffcc99"/>
    <rect x="22" y="10" width="6" height="3" fill="#ffcc99"/>
  </g>
  <g transform="translate(96,64)">
    <circle cx="16" cy="6" r="6" fill="#ffcc99"/>
    <rect x="10" y="12" width="12" height="14" fill="#4a90d9"/>
    <rect x="10" y="0" width="12" height="4" fill="#4a3020"/>
    <rect x="2" y="6" width="6" height="3" fill="#ffcc99"/>
    <rect x="24" y="6" width="6" height="3" fill="#ffcc99"/>
  </g>

  <!-- Row 3: Sleep (잠) -->
  <g transform="translate(0,96)">
    <circle cx="16" cy="14" r="6" fill="#ffcc99"/>
    <rect x="10" y="20" width="12" height="10" fill="#4a90d9"/>
    <rect x="10" y="8" width="12" height="4" fill="#4a3020"/>
    <text x="24" y="10" fill="#fff" font-size="6">z</text>
  </g>
  <g transform="translate(32,96)">
    <circle cx="16" cy="14" r="6" fill="#ffcc99"/>
    <rect x="10" y="20" width="12" height="10" fill="#4a90d9"/>
    <rect x="10" y="8" width="12" height="4" fill="#4a3020"/>
    <text x="26" y="8" fill="#fff" font-size="8">z</text>
  </g>
  <g transform="translate(64,96)">
    <circle cx="16" cy="14" r="6" fill="#ffcc99"/>
    <rect x="10" y="20" width="12" height="10" fill="#4a90d9"/>
    <rect x="10" y="8" width="12" height="4" fill="#4a3020"/>
    <text x="24" y="10" fill="#fff" font-size="6">z</text>
  </g>
  <g transform="translate(96,96)">
    <circle cx="16" cy="14" r="6" fill="#ffcc99"/>
    <rect x="10" y="20" width="12" height="10" fill="#4a90d9"/>
    <rect x="10" y="8" width="12" height="4" fill="#4a3020"/>
    <text x="26" y="6" fill="#fff" font-size="10">Z</text>
  </g>
</svg>
