<svg xmlns="http://www.w3.org/2000/svg" width="288" height="288" viewBox="0 0 288 288">
  <!-- 배경 (벽) -->
  <rect width="288" height="288" fill="#2a1f3d"/>

  <!-- 바닥 -->
  <rect y="200" width="288" height="88" fill="#3d2a1f"/>
  <rect y="200" width="288" height="4" fill="#5a3d2a"/>

  <!-- 벽 패턴 -->
  <rect x="20" y="20" width="60" height="80" fill="#3d2a4d" rx="2"/>
  <rect x="25" y="25" width="50" height="70" fill="#1a1a2e"/>
  <text x="50" y="65" fill="#4a9" font-size="10" text-anchor="middle">TV</text>

  <!-- 선반 -->
  <rect x="100" y="40" width="80" height="8" fill="#5a3d2a"/>
  <rect x="110" y="25" width="20" height="15" fill="#4a4a6a"/>
  <rect x="140" y="20" width="25" height="20" fill="#6a4a4a"/>

  <!-- 난로 -->
  <rect x="200" y="120" width="70" height="80" fill="#4a3020"/>
  <rect x="210" y="130" width="50" height="50" fill="#1a1010"/>
  <rect x="220" y="150" width="10" height="20" fill="#ff6030"/>
  <rect x="235" y="145" width="8" height="25" fill="#ff8040"/>
  <rect x="248" y="155" width="6" height="15" fill="#ff6030"/>

  <!-- 러그 -->
  <ellipse cx="144" cy="250" rx="60" ry="20" fill="#6a3050"/>
  <ellipse cx="144" cy="250" rx="50" ry="15" fill="#8a4070"/>
</svg>
